<svg width="164" height="164" viewBox="0 0 164 164" fill="none" xmlns="http://www.w3.org/2000/svg">
<g opacity="0.5" filter="url(#filter0_f)">
<rect x="20" y="20" width="124" height="124" rx="62" fill="url(#paint0_radial)"/>
</g>
<rect opacity="0.2" x="42" y="42" width="64" height="64" rx="32" fill="#E0BD89"/>
<rect x="57" y="52" width="26" height="28" rx="13" stroke="#E0BD89" stroke-width="2"/>
<path d="M84 65C79 66 71.5 65.5 65.5 62C62.5083 60.2548 60.5 60 57.5 60.5" stroke="#E0BD89" stroke-width="2"/>
<path d="M96 120L93.6803 99.1227C92.7237 90.5133 85.4466 84 76.7843 84H73.5M44 120L46.3197 99.1227C47.2763 90.5133 54.5534 84 63.2157 84H66.5" stroke="#E0BD89" stroke-width="2" stroke-linecap="round"/>
<path d="M84 121L82.6945 109.816C82.5509 107.816 81.9506 105.952 81 104.322M56 121L57.3055 109.816C57.4491 107.816 58.0494 105.952 59 104.322" stroke="#E0BD89" stroke-width="2" stroke-linecap="round"/>
<path d="M66 86.5C66 84.567 67.567 83 69.5 83H70.5C72.433 83 74 84.567 74 86.5C74 88.433 72.433 90 70.5 90H69.5C67.567 90 66 88.433 66 86.5Z" stroke="#E0BD89" stroke-width="2"/>
<path d="M68.5012 90L65 112.081L70 116L75 112.081L71.4988 90" stroke="#E0BD89" stroke-width="2"/>
<path d="M74.5 108.162L66 112.5" stroke="#E0BD89" stroke-width="2"/>
<path d="M74 102.081L66 106.162" stroke="#E0BD89" stroke-width="2"/>
<path d="M66 100.081L73 96.5101" stroke="#E0BD89" stroke-width="2"/>
<path d="M86 58.9117C87.1953 58.8876 88.2493 58.1311 88.6418 57.0154L92.9055 44.8969C93.7954 42.3677 97.4158 42.3677 98.3056 44.8969L102.569 57.0154C102.962 58.1311 104.016 58.8876 105.211 58.9117L118.195 59.1731C120.904 59.2276 122.023 62.6294 119.863 64.247L109.515 71.9981C108.562 72.7117 108.16 73.9358 108.506 75.0663L112.266 87.3464C113.051 89.9093 110.122 92.0117 107.898 90.4823L97.2383 83.1542C96.257 82.4795 94.9542 82.4795 93.9729 83.1542L91.6346 84.7617" stroke="#E0BD89" stroke-width="2" stroke-linecap="round"/>
<defs>
<filter id="filter0_f" x="0" y="0" width="164" height="164" filterUnits="userSpaceOnUse" color-interpolation-filters="sRGB">
<feFlood flood-opacity="0" result="BackgroundImageFix"/>
<feBlend mode="normal" in="SourceGraphic" in2="BackgroundImageFix" result="shape"/>
<feGaussianBlur stdDeviation="10" result="effect1_foregroundBlur"/>
</filter>
<radialGradient id="paint0_radial" cx="0" cy="0" r="1" gradientUnits="userSpaceOnUse" gradientTransform="translate(82 82) rotate(90) scale(62)">
<stop stop-color="#E0BD89"/>
<stop offset="1" stop-color="#E0BD89" stop-opacity="0"/>
</radialGradient>
</defs>
</svg>
