<svg width="164" height="164" viewBox="0 0 164 164" fill="none" xmlns="http://www.w3.org/2000/svg">
<g opacity="0.5" filter="url(#filter0_f)">
<rect x="20" y="20" width="124" height="124" rx="62" fill="url(#paint0_radial)"/>
</g>
<rect opacity="0.2" x="42" y="42" width="64" height="64" rx="32" fill="#E0BD89"/>
<rect x="88" y="43" width="24" height="24" rx="12" stroke="#E0BD89" stroke-width="2"/>
<path d="M96.606 56.1569C96.1667 55.8222 95.5393 55.907 95.2046 56.3463C94.8699 56.7856 94.9547 57.4131 95.394 57.7478L96.606 56.1569ZM106.8 52.6C107.131 52.1582 107.042 51.5314 106.6 51.2C106.158 50.8686 105.531 50.9582 105.2 51.4L106.8 52.6ZM99.1985 59.3893L98.5925 60.1848L99.1985 59.3893ZM95.394 57.7478L98.5925 60.1848L99.8046 58.5939L96.606 56.1569L95.394 57.7478ZM101.405 59.7939L106.8 52.6L105.2 51.4L99.8046 58.5939L101.405 59.7939ZM98.5925 60.1848C99.4758 60.8578 100.738 60.6823 101.405 59.7939L99.8046 58.5939L98.5925 60.1848Z" fill="#E0BD89"/>
<path d="M55.9503 63.5C55.6742 63.9783 55.838 64.5899 56.3163 64.866C56.7946 65.1422 57.4062 64.9783 57.6824 64.5L55.9503 63.5ZM79.4104 64.866C79.8886 65.1422 80.5002 64.9783 80.7764 64.5C81.0525 64.0217 80.8886 63.4101 80.4104 63.134L79.4104 64.866ZM108.649 112.5C108.925 112.022 108.762 111.41 108.283 111.134C107.805 110.858 107.193 111.022 106.917 111.5L108.649 112.5ZM85.1893 111.134C84.711 110.858 84.0994 111.022 83.8233 111.5C83.5471 111.978 83.711 112.59 84.1893 112.866L85.1893 111.134ZM57.6824 64.5L61.9559 57.0981L60.2238 56.0981L55.9503 63.5L57.6824 64.5ZM64.6879 56.366L79.4104 64.866L80.4104 63.134L65.6879 54.634L64.6879 56.366ZM106.917 111.5L102.644 118.902L104.376 119.902L108.649 112.5L106.917 111.5ZM99.9117 119.634L85.1893 111.134L84.1893 112.866L98.9117 121.366L99.9117 119.634ZM102.644 118.902C102.092 119.859 100.868 120.186 99.9117 119.634L98.9117 121.366C100.825 122.471 103.271 121.815 104.376 119.902L102.644 118.902ZM61.9559 57.0981C62.5082 56.1415 63.7313 55.8137 64.6879 56.366L65.6879 54.634C63.7747 53.5294 61.3284 54.1849 60.2238 56.0981L61.9559 57.0981Z" fill="#E0BD89"/>
<path d="M88 69C88.5523 69 89 68.5523 89 68C89 67.4477 88.5523 67 88 67V69ZM112 67C111.448 67 111 67.4477 111 68C111 68.5523 111.448 69 112 69V67ZM118 71V105H120V71H118ZM116 107H49V109H116V107ZM47 105V71H45V105H47ZM49 69H88V67H49V69ZM112 69H116V67H112V69ZM49 107C47.8954 107 47 106.105 47 105H45C45 107.209 46.7909 109 49 109V107ZM118 105C118 106.105 117.105 107 116 107V109C118.209 109 120 107.209 120 105H118ZM120 71C120 68.7909 118.209 67 116 67V69C117.105 69 118 69.8954 118 71H120ZM47 71C47 69.8954 47.8954 69 49 69V67C46.7909 67 45 68.7909 45 71H47Z" fill="#E0BD89"/>
<path d="M57 74C57.5523 74 58 73.5523 58 73C58 72.4477 57.5523 72 57 72V74ZM50 79C50 79.5523 50.4477 80 51 80C51.5523 80 52 79.5523 52 79H50ZM52 74H57V72H52V74ZM52 79V74H50V79H52ZM52 72C50.8954 72 50 72.8954 50 74H52V74V72Z" fill="#E0BD89"/>
<path d="M52 97C52 96.4477 51.5523 96 51 96C50.4477 96 50 96.4477 50 97L52 97ZM57 104C57.5523 104 58 103.552 58 103C58 102.448 57.5523 102 57 102L57 104ZM52 102L52 97L50 97L50 102L52 102ZM57 102L52 102L52 104L57 104L57 102ZM50 102C50 103.105 50.8954 104 52 104L52 102H52L50 102Z" fill="#E0BD89"/>
<path d="M108 74C107.448 74 107 73.5523 107 73C107 72.4477 107.448 72 108 72V74ZM115 79C115 79.5523 114.552 80 114 80C113.448 80 113 79.5523 113 79H115ZM113 74H108V72H113V74ZM113 79V74H115V79H113ZM113 72C114.105 72 115 72.8954 115 74H113V74V72Z" fill="#E0BD89"/>
<path d="M113 97C113 96.4477 113.448 96 114 96C114.552 96 115 96.4477 115 97L113 97ZM108 104C107.448 104 107 103.552 107 103C107 102.448 107.448 102 108 102L108 104ZM113 102L113 97L115 97L115 102L113 102ZM108 102L113 102L113 104L108 104L108 102ZM115 102C115 103.105 114.105 104 113 104L113 102H113L115 102Z" fill="#E0BD89"/>
<path d="M82 73V103" stroke="#E0BD89" stroke-width="2" stroke-linecap="round" stroke-linejoin="round"/>
<path d="M88.6667 79H78.6667C77.429 79 76.242 79.4741 75.3668 80.318C74.4917 81.1619 74 82.3065 74 83.5C74 84.6935 74.4917 85.8381 75.3668 86.682C76.242 87.5259 77.429 88 78.6667 88H85.3333C86.571 88 87.758 88.4741 88.6332 89.318C89.5083 90.1619 90 91.3065 90 92.5C90 93.6935 89.5083 94.8381 88.6332 95.682C87.758 96.5259 86.571 97 85.3333 97H74" stroke="#E0BD89" stroke-width="2" stroke-linecap="round" stroke-linejoin="round"/>
<defs>
<filter id="filter0_f" x="0" y="0" width="164" height="164" filterUnits="userSpaceOnUse" color-interpolation-filters="sRGB">
<feFlood flood-opacity="0" result="BackgroundImageFix"/>
<feBlend mode="normal" in="SourceGraphic" in2="BackgroundImageFix" result="shape"/>
<feGaussianBlur stdDeviation="10" result="effect1_foregroundBlur"/>
</filter>
<radialGradient id="paint0_radial" cx="0" cy="0" r="1" gradientUnits="userSpaceOnUse" gradientTransform="translate(82 82) rotate(90) scale(62)">
<stop stop-color="#E0BD89"/>
<stop offset="1" stop-color="#E0BD89" stop-opacity="0"/>
</radialGradient>
</defs>
</svg>
