<svg width="16" height="16" viewBox="0 0 16 16" fill="none" xmlns="http://www.w3.org/2000/svg">
<g clip-path="url(#clip0)">
<path d="M11.3335 1.33386H4.66683C2.82588 1.33386 1.3335 2.82625 1.3335 4.6672V11.3339C1.3335 13.1748 2.82588 14.6672 4.66683 14.6672H11.3335C13.1744 14.6672 14.6668 13.1748 14.6668 11.3339V4.6672C14.6668 2.82625 13.1744 1.33386 11.3335 1.33386Z" stroke="#E0BD89" stroke-width="2" stroke-linecap="round" stroke-linejoin="round"/>
<path d="M10.6668 7.58044C10.7491 8.13528 10.6543 8.70192 10.396 9.19979C10.1376 9.69765 9.7289 10.1014 9.22788 10.3536C8.72687 10.6057 8.1591 10.6935 7.60532 10.6044C7.05155 10.5153 6.53997 10.2538 6.14336 9.85722C5.74674 9.4606 5.48529 8.94903 5.39618 8.39525C5.30707 7.84148 5.39484 7.27371 5.64701 6.77269C5.89919 6.27168 6.30292 5.86294 6.80079 5.60461C7.29865 5.34627 7.8653 5.2515 8.42013 5.33378C8.98608 5.4177 9.51003 5.68142 9.91459 6.08598C10.3192 6.49054 10.5829 7.0145 10.6668 7.58044Z" stroke="#E0BD89" stroke-width="2" stroke-linecap="round" stroke-linejoin="round"/>
<path d="M11.6665 4.33386H11.6736" stroke="#E0BD89" stroke-width="2" stroke-linecap="round" stroke-linejoin="round"/>
</g>
<defs>
<clipPath id="clip0">
<rect width="16" height="16" fill="white" transform="translate(0 0.000488281)"/>
</clipPath>
</defs>
</svg>
