<svg width="14" height="14" viewBox="0 0 14 14" fill="none" xmlns="http://www.w3.org/2000/svg">
<path d="M3.17811 14.0005V4.55471H0.177061V14.0005H3.17811ZM1.67797 3.26428C2.72449 3.26428 3.3759 2.53895 3.3759 1.63254C3.3564 0.705682 2.72453 0.000488281 1.69783 0.000488281C0.671294 0.000488281 0 0.705696 0 1.63254C0 2.53899 0.651247 3.26428 1.65838 3.26428H1.67788H1.67797ZM4.83918 14.0005H7.84023V8.7255C7.84023 8.44319 7.85973 8.16118 7.93898 7.95937C8.15593 7.39532 8.64972 6.81113 9.47874 6.81113C10.5647 6.81113 10.9991 7.67734 10.9991 8.94714V14.0004H14V8.5843C14 5.68293 12.5194 4.33295 10.5449 4.33295C8.92599 4.33295 8.21516 5.27966 7.82027 5.92446H7.8403V4.55452H4.83925C4.87863 5.44086 4.83925 14.0003 4.83925 14.0003L4.83918 14.0005Z" fill="#E0BD89"/>
</svg>
