<svg width="220" height="220" viewBox="0 0 220 220" fill="none" xmlns="http://www.w3.org/2000/svg">
<g opacity="0.3" filter="url(#filter0_f)">
<rect x="40" y="40" width="140" height="140" rx="70" fill="url(#paint0_radial)"/>
</g>
<rect opacity="0.2" x="74" y="73.9995" width="70" height="70" rx="35" fill="#E0BD89"/>
<path d="M142.222 131.685C142.222 131.133 141.774 130.685 141.222 130.685C140.67 130.685 140.222 131.133 140.222 131.685H142.222ZM142.222 115.481C142.222 114.929 141.774 114.481 141.222 114.481C140.67 114.481 140.222 114.929 140.222 115.481H142.222ZM140.222 123.583C140.222 124.135 140.67 124.583 141.222 124.583C141.774 124.583 142.222 124.135 142.222 123.583H140.222ZM140.222 106.839C140.222 107.391 140.67 107.839 141.222 107.839C141.774 107.839 142.222 107.391 142.222 106.839H140.222ZM80.7776 71.1107H137.222V69.1107H80.7776V71.1107ZM137.222 146.889H80.7776V148.889H137.222V146.889ZM77.7776 143.889V74.1107H75.7776V143.889H77.7776ZM140.222 131.685V143.889H142.222V131.685H140.222ZM140.222 115.481V123.583H142.222V115.481H140.222ZM140.222 74.1107V106.839H142.222V74.1107H140.222ZM80.7776 146.889C79.1207 146.889 77.7776 145.545 77.7776 143.889H75.7776C75.7776 146.65 78.0162 148.889 80.7776 148.889V146.889ZM137.222 148.889C139.984 148.889 142.222 146.65 142.222 143.889H140.222C140.222 145.545 138.879 146.889 137.222 146.889V148.889ZM137.222 71.1107C138.879 71.1107 140.222 72.4539 140.222 74.1107H142.222C142.222 71.3493 139.984 69.1107 137.222 69.1107V71.1107ZM80.7776 69.1107C78.0162 69.1107 75.7776 71.3493 75.7776 74.1107H77.7776C77.7776 72.4539 79.1207 71.1107 80.7776 71.1107V69.1107Z" fill="#E0BD89"/>
<path d="M77.071 75.6663H74.1111C71.9019 75.6663 70.1111 77.4571 70.1111 79.6663V138.333C70.1111 140.542 71.9019 142.333 74.1111 142.333H77.071M141.469 142.333H143.889C146.098 142.333 147.889 140.542 147.889 138.333V79.6663C147.889 77.4571 146.098 75.6663 143.889 75.6663H141.469" stroke="#E0BD89" stroke-width="2"/>
<path d="M130.111 116.777H86.7778" stroke="#E0BD89" stroke-width="2" stroke-linecap="round"/>
<path d="M137.51 79.5257H126.161M131.836 85.2004L131.836 73.8508" stroke="#E0BD89" stroke-width="2" stroke-linecap="round"/>
<path d="M130.111 123.444H86.7778" stroke="#E0BD89" stroke-width="2" stroke-linecap="round"/>
<rect x="86.1689" y="130.722" width="44.6667" height="9.11113" rx="3" stroke="#E0BD89" stroke-width="2"/>
<path d="M126.482 92.333C126.482 101.988 118.655 109.815 109 109.815C99.3451 109.815 91.5181 101.988 91.5181 92.333C91.5181 82.6779 99.3451 74.8508 109 74.8508C118.655 74.8508 126.482 82.6779 126.482 92.333Z" stroke="#E0BD89" stroke-width="2"/>
<path d="M109 79.5256C104.229 79.5256 100.361 83.3179 100.361 87.9958C100.361 90.3705 101.77 91.9769 103.376 93.5149C103.468 92.4364 103.673 90.5369 105.401 89.4075C105.88 90.3487 108.136 92.2309 113.319 92.2309C112.839 91.2898 111.88 89.1252 111.88 87.9958C112.317 88.937 113.925 90.9604 116.855 91.5251C117.358 90.4507 117.639 89.2554 117.639 87.9958C117.639 83.3179 113.771 79.5256 109 79.5256Z" stroke="#E0BD89" stroke-width="2" stroke-linejoin="round"/>
<path d="M101.573 90.6725C99.6669 92.1265 99.9665 95.3153 102.779 96.4441C102.856 98.2524 105.105 102.266 108.838 102.266C112.57 102.266 114.82 98.2524 114.897 96.4441C117.709 95.3153 118.009 92.1265 116.103 90.6725" stroke="#E0BD89" stroke-width="2" stroke-linejoin="round"/>
<path d="M106.146 101.754L105.838 105.377C104.655 105.446 101.904 105.781 100.361 106.572M111.854 101.754L112.162 105.377C113.345 105.446 116.096 105.781 117.639 106.572" stroke="#E0BD89" stroke-width="2" stroke-linecap="round"/>
<defs>
<filter id="filter0_f" x="0" y="0" width="220" height="220" filterUnits="userSpaceOnUse" color-interpolation-filters="sRGB">
<feFlood flood-opacity="0" result="BackgroundImageFix"/>
<feBlend mode="normal" in="SourceGraphic" in2="BackgroundImageFix" result="shape"/>
<feGaussianBlur stdDeviation="20" result="effect1_foregroundBlur"/>
</filter>
<radialGradient id="paint0_radial" cx="0" cy="0" r="1" gradientUnits="userSpaceOnUse" gradientTransform="translate(110 110) rotate(90) scale(70)">
<stop stop-color="#E0BD89"/>
<stop offset="1" stop-color="#E0BD89" stop-opacity="0"/>
</radialGradient>
</defs>
</svg>
