<svg width="220" height="220" viewBox="0 0 220 220" fill="none" xmlns="http://www.w3.org/2000/svg">
<g opacity="0.3" filter="url(#filter0_f)">
<rect x="40" y="40" width="140" height="140" rx="70" fill="url(#paint0_radial)"/>
</g>
<rect opacity="0.2" x="78" y="78" width="64" height="64" rx="32" fill="#E0BD89"/>
<path d="M135 124.071C135 123.519 134.552 123.071 134 123.071C133.448 123.071 133 123.519 133 124.071H135ZM133 88.7407C133 89.293 133.448 89.7407 134 89.7407C134.552 89.7407 135 89.293 135 88.7407H133ZM75 77H130V75H75V77ZM130 140H75V142H130V140ZM72 137V80H70V137H72ZM133 124.071V137H135V124.071H133ZM133 80V88.7407H135V80H133ZM75 140C73.3431 140 72 138.657 72 137H70C70 139.761 72.2386 142 75 142V140ZM130 142C132.761 142 135 139.761 135 137H133C133 138.657 131.657 140 130 140V142ZM130 77C131.657 77 133 78.3431 133 80H135C135 77.2386 132.761 75 130 75V77ZM75 75C72.2386 75 70 77.2386 70 80H72C72 78.3431 73.3431 77 75 77V75Z" fill="#E0BD89"/>
<path d="M74 83C74 81.8954 74.8954 81 76 81H121C122.105 81 123 81.8954 123 83V134C123 135.105 122.105 136 121 136H76C74.8954 136 74 135.105 74 134V83Z" stroke="#E0BD89" stroke-width="2"/>
<path d="M78 141V141C78 142.657 79.3431 144 81 144V144C82.6569 144 84 142.657 84 141V141" stroke="#E0BD89" stroke-width="2"/>
<path d="M120 141V141C120 142.657 121.343 144 123 144H124C125.657 144 127 142.657 127 141V141" stroke="#E0BD89" stroke-width="2"/>
<path d="M128.286 94.1793L141.037 90.7625C142.658 90.3282 144.324 91.29 144.758 92.9106L149.214 109.539C149.648 111.16 148.686 112.826 147.065 113.26L127.212 118.58" stroke="#E0BD89" stroke-width="2" stroke-linecap="round"/>
<path d="M145.84 117.312L125.986 122.632" stroke="#E0BD89" stroke-width="2" stroke-linecap="round"/>
<path d="M127.955 97.1097L136.188 94.9034C136.831 94.7312 137.454 95.2117 137.648 95.8174C137.925 96.6771 138.525 97.4374 139.399 97.9163C140.28 98.3988 141.282 98.5092 142.211 98.2996C142.863 98.1522 143.62 98.4225 143.786 99.0403L145.183 104.255C145.348 104.871 144.832 105.482 144.195 105.682C143.291 105.966 142.483 106.562 141.964 107.416C141.443 108.274 141.305 109.24 141.501 110.128C141.64 110.752 141.341 111.486 140.695 111.659L127.048 115.316" stroke="#E0BD89" stroke-width="2" stroke-linecap="round"/>
<path d="M127.912 101.554C128.724 101.549 129.549 101.753 130.303 102.188C132.564 103.493 133.338 106.384 132.033 108.645C131.153 110.169 129.554 111.017 127.912 111.009" stroke="#E0BD89" stroke-width="2" stroke-linecap="round"/>
<circle cx="98.5" cy="108.5" r="13.5" stroke="#E0BD89" stroke-width="2"/>
<path d="M103 104.508C103 102.332 100.985 100.567 98.5 100.567C96.0147 100.567 94 102.332 94 104.508C94 106.685 95.9286 108.121 98.5 108.45C101.071 108.778 103 110.214 103 112.391C103 114.568 100.985 116.333 98.5 116.333C96.0147 116.333 94 114.568 94 112.391M98.5 98V100.376M98.5 116.4V119" stroke="#E0BD89" stroke-width="2" stroke-linecap="round"/>
<defs>
<filter id="filter0_f" x="0" y="0" width="220" height="220" filterUnits="userSpaceOnUse" color-interpolation-filters="sRGB">
<feFlood flood-opacity="0" result="BackgroundImageFix"/>
<feBlend mode="normal" in="SourceGraphic" in2="BackgroundImageFix" result="shape"/>
<feGaussianBlur stdDeviation="20" result="effect1_foregroundBlur"/>
</filter>
<radialGradient id="paint0_radial" cx="0" cy="0" r="1" gradientUnits="userSpaceOnUse" gradientTransform="translate(110 110) rotate(90) scale(70)">
<stop stop-color="#E0BD89"/>
<stop offset="1" stop-color="#E0BD89" stop-opacity="0"/>
</radialGradient>
</defs>
</svg>
