<svg width="220" height="220" viewBox="0 0 220 220" fill="none" xmlns="http://www.w3.org/2000/svg">
<g opacity="0.3" filter="url(#filter0_f)">
<rect x="40" y="40" width="140" height="140" rx="70" fill="url(#paint0_radial)"/>
</g>
<rect opacity="0.2" x="77" y="76.9995" width="64" height="64" rx="32" fill="#E0BD89"/>
<path d="M107 120.583V72.6935C107 71.0366 105.657 69.6935 104 69.6935H72C70.3431 69.6935 69 71.0366 69 72.6935V132.693C69 134.35 70.3431 135.693 72 135.693H86.255" stroke="#E0BD89" stroke-width="2" stroke-linecap="round"/>
<path d="M111 121.663V72.6935C111 71.0366 112.343 69.6935 114 69.6935H146C147.657 69.6935 149 71.0366 149 72.6935V137.696C149 139.353 147.657 140.696 146 140.696H119.867" stroke="#E0BD89" stroke-width="2" stroke-linecap="round"/>
<rect x="117" y="79.9995" width="26" height="3" rx="1.5" stroke="#E0BD89" stroke-width="2"/>
<rect x="117" y="125" width="26" height="8" rx="2" stroke="#E0BD89" stroke-width="2"/>
<path d="M124 93.038H136" stroke="#E0BD89" stroke-width="2" stroke-linecap="round"/>
<path d="M125.655 101H134.345" stroke="#E0BD89" stroke-width="2" stroke-linecap="round"/>
<path d="M122.348 106.534H137.652" stroke="#E0BD89" stroke-width="2" stroke-linecap="round"/>
<path d="M124 113.148H136" stroke="#E0BD89" stroke-width="2" stroke-linecap="round"/>
<rect x="75" y="79.9995" width="26" height="3" rx="1.5" stroke="#E0BD89" stroke-width="2"/>
<path d="M82 93.038H94" stroke="#E0BD89" stroke-width="2" stroke-linecap="round"/>
<path d="M83.6548 101H92.345" stroke="#E0BD89" stroke-width="2" stroke-linecap="round"/>
<path d="M80.3477 106.534H95.6522" stroke="#E0BD89" stroke-width="2" stroke-linecap="round"/>
<path d="M93.3148 139.905C93.5909 140.383 94.2025 140.547 94.6808 140.271C95.1591 139.995 95.3229 139.383 95.0468 138.905L93.3148 139.905ZM85.9156 125.089L86.7816 124.589L85.9156 125.089ZM91.7196 121.738L90.8536 122.238L91.7196 121.738ZM95.4047 128.121L94.5387 128.621L94.9615 129.353L95.7538 129.058L95.4047 128.121ZM112.128 128.92L111.262 129.42L112.128 128.92ZM95.0848 146.316L95.7184 145.542L95.0848 146.316ZM87.1421 120.512L86.6421 119.646L87.1421 120.512ZM95.0468 138.905L86.7816 124.589L85.0495 125.589L93.3148 139.905L95.0468 138.905ZM90.8536 122.238L94.5387 128.621L96.2707 127.621L92.5857 121.238L90.8536 122.238ZM95.7538 129.058C97.9296 128.248 101.354 127.347 104.518 127.196C106.1 127.121 107.56 127.237 108.747 127.607C109.925 127.974 110.77 128.569 111.262 129.42L112.994 128.42C112.18 127.01 110.844 126.166 109.342 125.698C107.85 125.233 106.134 125.117 104.423 125.199C101 125.361 97.3687 126.322 95.0556 127.184L95.7538 129.058ZM111.262 129.42C112.883 132.229 114.091 134.938 114.253 137.284C114.333 138.434 114.158 139.465 113.683 140.378C113.208 141.289 112.395 142.153 111.082 142.911L112.082 144.643C113.664 143.729 114.776 142.607 115.456 141.303C116.136 139.999 116.348 138.585 116.248 137.146C116.052 134.313 114.637 131.266 112.994 128.42L111.262 129.42ZM111.082 142.911C108.204 144.572 105.262 146.025 102.551 146.647C99.8544 147.266 97.5398 147.034 95.7184 145.542L94.4512 147.09C96.9312 149.121 99.9692 149.291 102.998 148.596C106.012 147.904 109.168 146.325 112.082 144.643L111.082 142.911ZM95.7184 145.542C93.6755 143.869 92.2619 142.279 91.6689 140.785C91.3805 140.058 91.2932 139.372 91.4063 138.706C91.5196 138.038 91.846 137.321 92.4923 136.553L90.9623 135.265C90.1302 136.254 89.6178 137.29 89.4344 138.371C89.2507 139.454 89.4088 140.512 89.81 141.523C90.5965 143.504 92.34 145.361 94.4512 147.09L95.7184 145.542ZM87.6421 121.378C88.7666 120.729 90.2044 121.114 90.8536 122.238L92.5857 121.238C91.3842 119.157 88.7232 118.444 86.6421 119.646L87.6421 121.378ZM86.7816 124.589C86.1324 123.465 86.5177 122.027 87.6421 121.378L86.6421 119.646C84.5611 120.847 83.8481 123.508 85.0495 125.589L86.7816 124.589Z" fill="#E0BD89"/>
<path d="M81.174 127.743C78.7572 123.557 80.1914 118.204 84.3774 115.788C88.5633 113.371 93.9159 114.805 96.3326 118.991" stroke="#E0BD89" stroke-width="2" stroke-linecap="round"/>
<defs>
<filter id="filter0_f" x="0" y="0" width="220" height="220" filterUnits="userSpaceOnUse" color-interpolation-filters="sRGB">
<feFlood flood-opacity="0" result="BackgroundImageFix"/>
<feBlend mode="normal" in="SourceGraphic" in2="BackgroundImageFix" result="shape"/>
<feGaussianBlur stdDeviation="20" result="effect1_foregroundBlur"/>
</filter>
<radialGradient id="paint0_radial" cx="0" cy="0" r="1" gradientUnits="userSpaceOnUse" gradientTransform="translate(110 110) rotate(90) scale(70)">
<stop stop-color="#E0BD89"/>
<stop offset="1" stop-color="#E0BD89" stop-opacity="0"/>
</radialGradient>
</defs>
</svg>
