<svg width="220" height="220" viewBox="0 0 220 220" fill="none" xmlns="http://www.w3.org/2000/svg">
<g opacity="0.3" filter="url(#filter0_f)">
<rect x="40" y="40" width="140" height="140" rx="70" fill="url(#paint0_radial)"/>
</g>
<rect opacity="0.2" x="77" y="77" width="64" height="64" rx="32" fill="#E0BD89"/>
<mask id="path-3-inside-1" fill="white">
<path d="M81.1916 115.73C80.0946 115.601 79.3032 114.605 79.505 113.519C80.4626 108.365 82.7569 103.54 86.1734 99.5336C90.0235 95.0189 95.1259 91.7473 100.835 90.1325C106.545 88.5177 112.605 88.6322 118.249 90.4616C123.894 92.2909 128.869 95.7529 132.546 100.41C136.223 105.067 138.436 110.709 138.906 116.624C139.376 122.539 138.081 128.46 135.186 133.639C132.29 138.818 127.924 143.023 122.64 145.72C117.95 148.114 112.724 149.226 107.489 148.962C106.386 148.906 105.601 147.905 105.73 146.808L107.715 129.925C107.844 128.828 108.846 128.066 109.945 127.95C111.037 127.835 112.104 127.52 113.092 127.016C114.677 126.207 115.987 124.946 116.856 123.392C117.724 121.838 118.113 120.062 117.972 118.287C117.831 116.513 117.167 114.82 116.064 113.423C114.961 112.026 113.468 110.987 111.775 110.439C110.081 109.89 108.263 109.855 106.551 110.34C104.838 110.824 103.307 111.806 102.152 113.16C101.432 114.004 100.879 114.969 100.513 116.005C100.145 117.046 99.1723 117.844 98.0753 117.715L81.1916 115.73Z"/>
</mask>
<path d="M81.1916 115.73C80.0946 115.601 79.3032 114.605 79.505 113.519C80.4626 108.365 82.7569 103.54 86.1734 99.5336C90.0235 95.0189 95.1259 91.7473 100.835 90.1325C106.545 88.5177 112.605 88.6322 118.249 90.4616C123.894 92.2909 128.869 95.7529 132.546 100.41C136.223 105.067 138.436 110.709 138.906 116.624C139.376 122.539 138.081 128.46 135.186 133.639C132.29 138.818 127.924 143.023 122.64 145.72C117.95 148.114 112.724 149.226 107.489 148.962C106.386 148.906 105.601 147.905 105.73 146.808L107.715 129.925C107.844 128.828 108.846 128.066 109.945 127.95C111.037 127.835 112.104 127.52 113.092 127.016C114.677 126.207 115.987 124.946 116.856 123.392C117.724 121.838 118.113 120.062 117.972 118.287C117.831 116.513 117.167 114.82 116.064 113.423C114.961 112.026 113.468 110.987 111.775 110.439C110.081 109.89 108.263 109.855 106.551 110.34C104.838 110.824 103.307 111.806 102.152 113.16C101.432 114.004 100.879 114.969 100.513 116.005C100.145 117.046 99.1723 117.844 98.0753 117.715L81.1916 115.73Z" stroke="#E0BD89" stroke-width="4" mask="url(#path-3-inside-1)"/>
<mask id="path-4-inside-2" fill="white">
<path d="M100.212 145.585C99.8652 146.634 98.7308 147.209 97.7075 146.794C93.1851 144.956 89.1694 142.039 86.0187 138.284C82.8681 134.529 80.6921 130.068 79.6678 125.295C79.4361 124.215 80.1997 123.198 81.2927 123.038L92.9966 121.333C94.0897 121.173 95.0912 121.937 95.4026 122.996C95.9518 124.865 96.8823 126.607 98.1433 128.11C99.4043 129.613 100.959 130.832 102.703 131.697C103.693 132.188 104.271 133.307 103.924 134.355L100.212 145.585Z"/>
</mask>
<path d="M100.212 145.585C99.8652 146.634 98.7308 147.209 97.7075 146.794C93.1851 144.956 89.1694 142.039 86.0187 138.284C82.8681 134.529 80.6921 130.068 79.6678 125.295C79.4361 124.215 80.1997 123.198 81.2927 123.038L92.9966 121.333C94.0897 121.173 95.0912 121.937 95.4026 122.996C95.9518 124.865 96.8823 126.607 98.1433 128.11C99.4043 129.613 100.959 130.832 102.703 131.697C103.693 132.188 104.271 133.307 103.924 134.355L100.212 145.585Z" stroke="#E0BD89" stroke-width="4" mask="url(#path-4-inside-2)"/>
<path d="M136.945 120.758L119.978 119.691" stroke="#E0BD89" stroke-width="2"/>
<path d="M134.335 130.922L118.953 123.684" stroke="#E0BD89" stroke-width="2"/>
<path d="M128.167 139.411L116.53 127.019" stroke="#E0BD89" stroke-width="2"/>
<path d="M119.307 145.034L113.049 129.228" stroke="#E0BD89" stroke-width="2"/>
<path d="M126 90.5001V73.0001C126 70.791 127.791 69.0001 130 69.0001H145C147.209 69.0001 149 70.791 149 73.0001V102C149 104.209 147.209 106 145 106H141" stroke="#E0BD89" stroke-width="2" stroke-linecap="round"/>
<path d="M97 87.5001C97 88.0524 97.4477 88.5001 98 88.5001C98.5523 88.5001 99 88.0524 99 87.5001H97ZM120 87.5001C120 88.0524 120.448 88.5001 121 88.5001C121.552 88.5001 122 88.0524 122 87.5001H120ZM102 73.0001H117V71.0001H102V73.0001ZM99 87.5001V76.0001H97V87.5001H99ZM120 76.0001V87.5001H122V76.0001H120ZM117 73.0001C118.657 73.0001 120 74.3433 120 76.0001H122C122 73.2387 119.761 71.0001 117 71.0001V73.0001ZM102 71.0001C99.2386 71.0001 97 73.2387 97 76.0001H99C99 74.3433 100.343 73.0001 102 73.0001V71.0001Z" fill="#E0BD89"/>
<path d="M78.5 107C79.0523 107 79.5 106.552 79.5 106C79.5 105.448 79.0523 105 78.5 105V107ZM91 90.0001C91 90.5524 91.4477 91.0001 92 91.0001C92.5523 91.0001 93 90.5524 93 90.0001H91ZM73 85.0001H88V83.0001H73V85.0001ZM70 102V88.0001H68V102H70ZM78.5 105H73V107H78.5V105ZM91 88.0001V90.0001H93V88.0001H91ZM68 102C68 104.762 70.2386 107 73 107V105C71.3431 105 70 103.657 70 102H68ZM88 85.0001C89.6569 85.0001 91 86.3433 91 88.0001H93C93 85.2387 90.7614 83.0001 88 83.0001V85.0001ZM73 83.0001C70.2386 83.0001 68 85.2387 68 88.0001H70C70 86.3433 71.3431 85.0001 73 85.0001V83.0001Z" fill="#E0BD89"/>
<defs>
<filter id="filter0_f" x="0" y="0" width="220" height="220" filterUnits="userSpaceOnUse" color-interpolation-filters="sRGB">
<feFlood flood-opacity="0" result="BackgroundImageFix"/>
<feBlend mode="normal" in="SourceGraphic" in2="BackgroundImageFix" result="shape"/>
<feGaussianBlur stdDeviation="20" result="effect1_foregroundBlur"/>
</filter>
<radialGradient id="paint0_radial" cx="0" cy="0" r="1" gradientUnits="userSpaceOnUse" gradientTransform="translate(110 110) rotate(90) scale(70)">
<stop stop-color="#E0BD89"/>
<stop offset="1" stop-color="#E0BD89" stop-opacity="0"/>
</radialGradient>
</defs>
</svg>
