<svg width="16" height="14" viewBox="0 0 16 14" fill="none" xmlns="http://www.w3.org/2000/svg">
<path d="M16 2.04527C15.4116 2.29909 14.7713 2.48176 14.1118 2.55291C14.7965 2.1461 15.3093 1.50341 15.5539 0.74543C14.9113 1.12767 14.2074 1.3957 13.4734 1.53764C13.1666 1.20966 12.7955 0.948367 12.3833 0.770057C11.9711 0.591747 11.5266 0.500237 11.0775 0.501229C9.26043 0.501229 7.79906 1.97413 7.79906 3.7816C7.79906 4.03542 7.82983 4.28924 7.87982 4.53344C5.159 4.39115 2.73236 3.0913 1.1191 1.10116C0.825142 1.60324 0.671099 2.17492 0.672996 2.75673C0.672996 3.89505 1.25177 4.89878 2.13436 5.48909C1.61424 5.46861 1.1063 5.32565 0.651845 5.07183V5.11221C0.651845 6.70625 1.77863 8.02725 3.28038 8.33106C2.99841 8.4043 2.70834 8.44177 2.41702 8.44258C2.20358 8.44258 2.00168 8.42143 1.79786 8.39259C2.2132 9.69243 3.42267 10.6365 4.86288 10.6673C3.73609 11.5499 2.32472 12.0691 0.792213 12.0691C0.517246 12.0691 0.26343 12.0595 0 12.0287C1.45367 12.9613 3.17846 13.4997 5.03593 13.4997C11.066 13.4997 14.3656 8.50411 14.3656 4.1681C14.3656 4.02581 14.3656 3.88351 14.356 3.74122C14.9944 3.27397 15.5539 2.6952 16 2.04527Z" fill="#E0BD89"/>
</svg>
